<svg xmlns="http://www.w3.org/2000/svg" version="1.1" viewBox="-5.0 -10.0 110.0 135.0">
 <path fill="#ffffff" d="m93.75 29.207c-0.015625-0.054687 0-13.312-0.007812-13.375 0-2.9609-2.4102-5.3711-5.3711-5.3711h-76.75c-2.9609 0-5.3711 2.4102-5.3711 5.3711v58.668c0 2.9609 2.4102 5.3711 5.3711 5.3711h8.9961c1.2695 0 2.3008-1.0312 2.3008-2.3008 0-1.2695-1.0312-2.3008-2.3008-2.3008h-8.9961c-0.42188 0-0.76562-0.34375-0.76562-0.76562v-42.988h78.285v42.988c0 0.42188-0.34375 0.76562-0.76562 0.76562h-8.9961c-1.2695 0-2.3008 1.0312-2.3008 2.3008 0 1.2695 1.0312 2.3008 2.3008 2.3008h8.9961c2.9609 0 5.3711-2.4102 5.3711-5.3711 0.011718-0.054688-0.015625-45.242 0.007812-45.293zm-82.895-2.3008v-11.07c0-0.42188 0.34375-0.76563 0.76562-0.76563h76.75c0.42188 0 0.76562 0.34375 0.76562 0.76563v11.07l-78.281-0.003906z"/>
 <path fill="#ffffff" d="m20.289 18.559c-3.0273 0.050781-3.0273 4.5547 0 4.6055 3.0273-0.050781 3.0273-4.5547 0-4.6055z"/>
 <path fill="#ffffff" d="m29.77 18.559c-3.0273 0.050781-3.0273 4.5547 0 4.6055 3.0273-0.050781 3.0273-4.5547 0-4.6055z"/>
 <path fill="#ffffff" d="m80.484 18.559h-24.41c-3.0195 0.050781-3.0312 4.5547 0 4.6055h24.41c3.0195-0.050781 3.0312-4.5547 0-4.6055z"/>
 <path fill="#ffffff" d="m50.004 39.016c-13.965 0-25.328 11.363-25.328 25.328 1.3906 33.602 49.27 33.59 50.656 0 0-13.965-11.363-25.328-25.328-25.328zm17.141 13.699c-1.7461 0.70312-3.9453 1.2891-6.4531 1.7266-0.64844-3.5-1.6406-6.7266-2.9766-9.3164 3.8438 1.5469 7.125 4.207 9.4258 7.5898zm-17.141 32.352c-2.0664 0-4.8008-4.2617-6.1484-11.422 4-0.36719 8.3008-0.36719 12.301 0-1.3516 7.1602-4.0859 11.422-6.1484 11.422zm0-41.445c2.0664 0 4.8008 4.2617 6.1523 11.422-3.9844 0.36328-8.2969 0.36328-12.301 0 1.3516-7.1602 4.0859-11.422 6.1484-11.422zm6.9805 20.723c0 1.6602-0.074219 3.2383-0.20703 4.7344-4.4062-0.41797-9.1523-0.41797-13.551 0-0.12891-1.4961-0.20703-3.0742-0.20703-4.7344 0-1.6719 0.078125-3.2617 0.20703-4.7656 2.1914 0.21094 4.4336 0.35547 6.7695 0.35547 2.3438 0 4.5898-0.14453 6.7773-0.35156 0.13281 1.5039 0.20703 3.0898 0.20703 4.7617zm-14.695-19.219c-1.332 2.5898-2.3281 5.8164-2.9766 9.3164-2.5078-0.44141-4.7109-1.0234-6.4531-1.7266 2.3008-3.3828 5.5859-6.043 9.4297-7.5898zm-11.578 11.699c2.1406 0.91016 4.8867 1.6445 7.9688 2.1758-0.34766 3.5469-0.34766 7.1367 0 10.684-3.0664 0.52734-5.8086 1.2617-7.9688 2.1758-1.8906-4.6133-1.8906-10.422 0-15.035zm2.1484 19.148c1.7578-0.70312 3.957-1.2891 6.4531-1.7266 0.64844 3.5 1.6406 6.7266 2.9766 9.3164-3.8438-1.5469-7.125-4.207-9.4297-7.5898zm24.852 7.5898c1.332-2.5898 2.3242-5.8164 2.9727-9.3125 2.5117 0.44141 4.7109 1.0273 6.4531 1.7266-2.3008 3.3828-5.582 6.0391-9.4258 7.5898zm11.578-11.699c-2.1367-0.90625-4.8828-1.6445-7.9648-2.1758 0.34766-3.5469 0.34766-7.1367 0-10.688 3.0781-0.53125 5.8203-1.2695 7.9648-2.1797 1.8906 4.6172 1.8945 10.426 0 15.039z"/>
  </svg>
